{
  "accessors": [
    {
      "bufferView": 2,
      "componentType": 5126,
      "count": 1331,
      "max": [
        -0.21916399896144867,
        -0.9741910099983215,
        2.003704071044922
      ],
      "min": [
        -0.3092750012874603,
        -1.4015549421310425,
        1.780182957649231
      ],
      "type": "VEC3"
    },
    {
      "bufferView": 2,
      "byteOffset": 15972,
      "componentType": 5126,
      "count": 1331,
      "max": [
        0.9906960129737854,
        0.9871993660926819,
        0.9999899864196777
      ],
      "min": [
        -0.9906970262527466,
        -0.9871993660926819,
        -0.9999899864196777
      ],
      "type": "VEC3"
    },
    {
      "bufferView": 1,
      "componentType": 5126,
      "count": 1331,
      "max": [
        1.0,
        1.0
      ],
      "min": [
        0.0,
        0.0
      ],
      "type": "VEC2"
    },
    {
      "bufferView": 0,
      "componentType": 5125,
      "count": 5184,
      "type": "SCALAR"
    },
    {
      "bufferView": 2,
      "byteOffset": 31944,
      "componentType": 5126,
      "count": 416,
      "max": [
        -0.22413399815559387,
        -0.9754229784011841,
        2.0034608840942383
      ],
      "min": [
        -0.30430498719215393,
        -1.4003230333328247,
        1.780426025390625
      ],
      "type": "VEC3"
    },
    {
      "bufferView": 2,
      "byteOffset": 36936,
      "componentType": 5126,
      "count": 416,
      "max": [
        0.9865217804908752,
        0.16418607532978058,
        0.00045999977737665176
      ],
      "min": [
        -0.9865217804908752,
        -0.16418607532978058,
        -0.00016700004925951362
      ],
      "type": "VEC3"
    },
    {
      "bufferView": 1,
      "byteOffset": 10648,
      "componentType": 5126,
      "count": 416,
      "max": [
        1.0,
        1.0
      ],
      "min": [
        0.0,
        0.0934550017118454
      ],
      "type": "VEC2"
    },
    {
      "bufferView": 0,
      "byteOffset": 20736,
      "componentType": 5125,
      "count": 1248,
      "type": "SCALAR"
    },
    {
      "bufferView": 2,
      "byteOffset": 41928,
      "componentType": 5126,
      "count": 354,
      "max": [
        -0.1742980033159256,
        -0.9067040085792542,
        1.762246012687683
      ],
      "min": [
        -0.3541409969329834,
        -1.4690419435501099,
        1.7472460269927979
      ],
      "type": "VEC3"
    },
    {
      "bufferView": 2,
      "byteOffset": 46176,
      "componentType": 5126,
      "count": 354,
      "max": [
        0.9987180233001709,
        0.9987180233001709,
        1.0
      ],
      "min": [
        -0.9987180233001709,
        -0.9987180233001709,
        -1.0
      ],
      "type": "VEC3"
    },
    {
      "bufferView": 1,
      "byteOffset": 13976,
      "componentType": 5126,
      "count": 354,
      "max": [
        1.0,
        1.0
      ],
      "min": [
        -0.19377100467681885,
        0.0
      ],
      "type": "VEC2"
    },
    {
      "bufferView": 0,
      "byteOffset": 25728,
      "componentType": 5125,
      "count": 1008,
      "type": "SCALAR"
    },
    {
      "bufferView": 2,
      "byteOffset": 50424,
      "componentType": 5126,
      "count": 92,
      "max": [
        -0.23068499565124512,
        -1.0145020484924316,
        1.7830009460449219
      ],
      "min": [
        -0.2977539896965027,
        -1.3612439632415771,
        1.7588859796524048
      ],
      "type": "VEC3"
    },
    {
      "bufferView": 2,
      "byteOffset": 51528,
      "componentType": 5126,
      "count": 92,
      "max": [
        0.9865392446517944,
        0.9889150261878967,
        0.9999536275863647
      ],
      "min": [
        -0.9865392446517944,
        -0.9889150261878967,
        -0.9999536275863647
      ],
      "type": "VEC3"
    },
    {
      "bufferView": 1,
      "byteOffset": 16808,
      "componentType": 5126,
      "count": 92,
      "max": [
        1.0,
        1.0
      ],
      "min": [
        -0.0,
        -0.0
      ],
      "type": "VEC2"
    },
    {
      "bufferView": 0,
      "byteOffset": 29760,
      "componentType": 5125,
      "count": 324,
      "type": "SCALAR"
    },
    {
      "bufferView": 2,
      "byteOffset": 52632,
      "componentType": 5126,
      "count": 2473,
      "max": [
        -0.22455500066280365,
        -1.0065380334854126,
        1.9861069917678833
      ],
      "min": [
        -0.30388399958610535,
        -1.3692079782485962,
        1.8338810205459595
      ],
      "type": "VEC3"
    },
    {
      "bufferView": 2,
      "byteOffset": 82308,
      "componentType": 5126,
      "count": 2473,
      "max": [
        0.9922912120819092,
        0.9875009059906006,
        0.999980092048645
      ],
      "min": [
        -0.9923577904701233,
        -0.9875017404556274,
        -0.9999828934669495
      ],
      "type": "VEC3"
    },
    {
      "bufferView": 1,
      "byteOffset": 17544,
      "componentType": 5126,
      "count": 2473,
      "max": [
        1.0,
        1.0
      ],
      "min": [
        0.0,
        0.0
      ],
      "type": "VEC2"
    },
    {
      "bufferView": 0,
      "byteOffset": 31056,
      "componentType": 5125,
      "count": 9072,
      "type": "SCALAR"
    },
    {
      "bufferView": 2,
      "byteOffset": 111984,
      "componentType": 5126,
      "count": 154,
      "max": [
        -0.04405299946665764,
        -0.6915000081062317,
        1.7738250494003296
      ],
      "min": [
        -0.4842059910297394,
        -1.67877197265625,
        0.010591999627649784
      ],
      "type": "VEC3"
    },
    {
      "bufferView": 2,
      "byteOffset": 113832,
      "componentType": 5126,
      "count": 154,
      "max": [
        0.9928510189056396,
        0.9905096292495728,
        0.9999903440475464
      ],
      "min": [
        -0.9901095032691956,
        -0.9905097484588623,
        -0.9999903440475464
      ],
      "type": "VEC3"
    },
    {
      "bufferView": 1,
      "byteOffset": 37328,
      "componentType": 5126,
      "count": 154,
      "max": [
        0.9930189847946167,
        0.935030996799469
      ],
      "min": [
        0.00698099983856082,
        0.006572999991476536
      ],
      "type": "VEC2"
    },
    {
      "bufferView": 0,
      "byteOffset": 67344,
      "componentType": 5125,
      "count": 564,
      "type": "SCALAR"
    }
  ],
  "asset": {
    "extras": {
      "author": "harusan0424 (https://sketchfab.com/harusan0424)",
      "license": "CC-BY-4.0 (http://creativecommons.org/licenses/by/4.0/)",
      "source": "https://sketchfab.com/3d-models/power-bank-box-f98dde5a05a44cf380bf7400d15f0c1f",
      "title": "power bank box"
    },
    "generator": "Sketchfab-13.74.0",
    "version": "2.0"
  },
  "bufferViews": [
    {
      "buffer": 0,
      "byteLength": 69600,
      "name": "floatBufferViews",
      "target": 34963
    },
    {
      "buffer": 0,
      "byteLength": 38560,
      "byteOffset": 69600,
      "byteStride": 8,
      "name": "floatBufferViews",
      "target": 34962
    },
    {
      "buffer": 0,
      "byteLength": 115680,
      "byteOffset": 108160,
      "byteStride": 12,
      "name": "floatBufferViews",
      "target": 34962
    }
  ],
  "buffers": [
    {
      "byteLength": 223840,
      "uri": "scene.bin"
    }
  ],
  "images": [
    {
      "uri": "textures/initialShadingGroup_baseColor.jpeg"
    }
  ],
  "materials": [
    {
      "doubleSided": true,
      "name": "MeshFBXASC032polySurface10SG1",
      "pbrMetallicRoughness": {
        "baseColorFactor": [
          0.0,
          0.0,
          0.0,
          1.0
        ],
        "metallicFactor": 0.0,
        "roughnessFactor": 0.5363984674329502
      }
    },
    {
      "doubleSided": true,
      "name": "MeshFBXASC032polySurface11SG1",
      "pbrMetallicRoughness": {
        "baseColorFactor": [
          0.0,
          0.0,
          0.0,
          1.0
        ],
        "metallicFactor": 0.0,
        "roughnessFactor": 0.6
      }
    },
    {
      "doubleSided": true,
      "name": "MeshFBXASC032polySurface12SG1",
      "pbrMetallicRoughness": {
        "baseColorFactor": [
          0.0,
          0.0,
          0.0,
          1.0
        ],
        "metallicFactor": 0.0,
        "roughnessFactor": 0.6
      }
    },
    {
      "doubleSided": true,
      "name": "MeshFBXASC032polySurface2SG1",
      "pbrMetallicRoughness": {
        "baseColorFactor": [
          0.0,
          0.0,
          0.0,
          1.0
        ],
        "metallicFactor": 0.0,
        "roughnessFactor": 0.6
      }
    },
    {
      "doubleSided": true,
      "name": "initialShadingGroup",
      "pbrMetallicRoughness": {
        "baseColorTexture": {
          "index": 0
        },
        "metallicFactor": 0.0,
        "roughnessFactor": 0.49961685823754787
      }
    },
    {
      "doubleSided": true,
      "name": "polySurface1FBXASC032MeshSG1",
      "pbrMetallicRoughness": {
        "metallicFactor": 0.0,
        "roughnessFactor": 0.6
      }
    }
  ],
  "meshes": [
    {
      "name": "Object_0",
      "primitives": [
        {
          "attributes": {
            "NORMAL": 1,
            "POSITION": 0,
            "TEXCOORD_0": 2
          },
          "indices": 3,
          "material": 1,
          "mode": 4
        }
      ]
    },
    {
      "name": "Object_1",
      "primitives": [
        {
          "attributes": {
            "NORMAL": 5,
            "POSITION": 4,
            "TEXCOORD_0": 6
          },
          "indices": 7,
          "material": 0,
          "mode": 4
        }
      ]
    },
    {
      "name": "Object_2",
      "primitives": [
        {
          "attributes": {
            "NORMAL": 9,
            "POSITION": 8,
            "TEXCOORD_0": 10
          },
          "indices": 11,
          "material": 5,
          "mode": 4
        }
      ]
    },
    {
      "name": "Object_3",
      "primitives": [
        {
          "attributes": {
            "NORMAL": 13,
            "POSITION": 12,
            "TEXCOORD_0": 14
          },
          "indices": 15,
          "material": 3,
          "mode": 4
        }
      ]
    },
    {
      "name": "Object_4",
      "primitives": [
        {
          "attributes": {
            "NORMAL": 17,
            "POSITION": 16,
            "TEXCOORD_0": 18
          },
          "indices": 19,
          "material": 2,
          "mode": 4
        }
      ]
    },
    {
      "name": "Object_5",
      "primitives": [
        {
          "attributes": {
            "NORMAL": 21,
            "POSITION": 20,
            "TEXCOORD_0": 22
          },
          "indices": 23,
          "material": 4,
          "mode": 4
        }
      ]
    }
  ],
  "nodes": [
    {
      "children": [
        1
      ],
      "matrix": [
        1.0,
        0.0,
        0.0,
        0.0,
        0.0,
        2.220446049250313e-16,
        -1.0,
        0.0,
        0.0,
        1.0,
        2.220446049250313e-16,
        0.0,
        0.0,
        0.0,
        0.0,
        1.0
      ],
      "name": "Sketchfab_model"
    },
    {
      "children": [
        2,
        3,
        4,
        5,
        6,
        7
      ],
      "name": "power bank box.obj.cleaner.materialmerger.gles"
    },
    {
      "mesh": 0,
      "name": "Object_2"
    },
    {
      "mesh": 1,
      "name": "Object_3"
    },
    {
      "mesh": 2,
      "name": "Object_4"
    },
    {
      "mesh": 3,
      "name": "Object_5"
    },
    {
      "mesh": 4,
      "name": "Object_6"
    },
    {
      "mesh": 5,
      "name": "Object_7"
    }
  ],
  "samplers": [
    {
      "magFilter": 9729,
      "minFilter": 9987,
      "wrapS": 10497,
      "wrapT": 10497
    }
  ],
  "scene": 0,
  "scenes": [
    {
      "name": "Sketchfab_Scene",
      "nodes": [
        0
      ]
    }
  ],
  "textures": [
    {
      "sampler": 0,
      "source": 0
    }
  ]
}
