{
  "accessors": [
    {
      "bufferView": 1,
      "componentType": 5126,
      "count": 28889,
      "max": [
        9.315999984741211,
        -38.4379997253418,
        42.599998474121094
      ],
      "min": [
        -68.9000015258789,
        -75.9000015258789,
        -7.450580950807417e-12
      ],
      "type": "VEC3"
    },
    {
      "bufferView": 1,
      "byteOffset": 346668,
      "componentType": 5126,
      "count": 28889,
      "max": [
        1.0,
        1.0,
        1.0
      ],
      "min": [
        -1.0,
        -1.0,
        -1.0
      ],
      "type": "VEC3"
    },
    {
      "bufferView": 0,
      "componentType": 5125,
      "count": 133461,
      "type": "SCALAR"
    }
  ],
  "asset": {
    "extras": {
      "author": "Kevin Mercer (https://sketchfab.com/kevinmercer)",
      "license": "CC-BY-4.0 (http://creativecommons.org/licenses/by/4.0/)",
      "source": "https://sketchfab.com/3d-models/vep-viii-electric-power-station-73035ae072424c67926239eb55d22381",
      "title": "V.E.P. VIII: Electric Power Station"
    },
    "generator": "Sketchfab-12.67.0",
    "version": "2.0"
  },
  "bufferViews": [
    {
      "buffer": 0,
      "byteLength": 533844,
      "name": "floatBufferViews",
      "target": 34963
    },
    {
      "buffer": 0,
      "byteLength": 693336,
      "byteOffset": 533844,
      "byteStride": 12,
      "name": "floatBufferViews",
      "target": 34962
    }
  ],
  "buffers": [
    {
      "byteLength": 1227180,
      "uri": "scene.bin"
    }
  ],
  "extensionsRequired": [
    "KHR_materials_pbrSpecularGlossiness"
  ],
  "extensionsUsed": [
    "KHR_materials_pbrSpecularGlossiness"
  ],
  "materials": [
    {
      "doubleSided": true,
      "extensions": {
        "KHR_materials_pbrSpecularGlossiness": {
          "diffuseFactor": [
            0.8648245820318267,
            0.018539224304532757,
            0.018539224304532757,
            1.0
          ],
          "glossinessFactor": 0.5383003048780488,
          "specularFactor": [
            0.00029294414765122247,
            0.7560935473557928,
            0.8553734756097561
          ]
        }
      },
      "name": "Scene_-_Root"
    }
  ],
  "meshes": [
    {
      "name": "Object_0",
      "primitives": [
        {
          "attributes": {
            "NORMAL": 1,
            "POSITION": 0
          },
          "indices": 2,
          "material": 0,
          "mode": 4
        }
      ]
    }
  ],
  "nodes": [
    {
      "children": [
        1
      ],
      "matrix": [
        0.6153524518013,
        0.0,
        0.0,
        0.0,
        0.0,
        1.3663569204986904e-16,
        -0.6153524518013,
        0.0,
        0.0,
        0.6153524518013,
        1.3663569204986904e-16,
        0.0,
        0.0,
        0.0,
        0.0,
        1.0
      ],
      "name": "Sketchfab_model"
    },
    {
      "children": [
        2
      ],
      "name": "Smashing Krunk-Uusam (8).stl.cleaner.materialmerger.gles"
    },
    {
      "mesh": 0,
      "name": "Object_2"
    }
  ],
  "scene": 0,
  "scenes": [
    {
      "name": "Sketchfab_Scene",
      "nodes": [
        0
      ]
    }
  ]
}
