{
  "accessors": [
    {
      "bufferView": 2,
      "componentType": 5126,
      "count": 9801,
      "max": [
        6.8979291915893555,
        37.995113372802734,
        7.429347038269043
      ],
      "min": [
        -15.72343921661377,
        -32.97010040283203,
        -4.090784072875977
      ],
      "type": "VEC3"
    },
    {
      "bufferView": 2,
      "byteOffset": 117612,
      "componentType": 5126,
      "count": 9801,
      "max": [
        1.0,
        1.0,
        1.0
      ],
      "min": [
        -1.0,
        -1.0,
        -1.0
      ],
      "type": "VEC3"
    },
    {
      "bufferView": 1,
      "componentType": 5126,
      "count": 9801,
      "max": [
        0.0,
        0.0
      ],
      "min": [
        0.0,
        0.0
      ],
      "type": "VEC2"
    },
    {
      "bufferView": 0,
      "componentType": 5125,
      "count": 21999,
      "type": "SCALAR"
    },
    {
      "bufferView": 2,
      "byteOffset": 235224,
      "componentType": 5126,
      "count": 5306,
      "max": [
        6.3428263664245605,
        -27.464004516601563,
        2.743640899658203
      ],
      "min": [
        -14.574198722839355,
        -32.903133392333984,
        -1.8741800785064697
      ],
      "type": "VEC3"
    },
    {
      "bufferView": 2,
      "byteOffset": 298896,
      "componentType": 5126,
      "count": 5306,
      "max": [
        1.0,
        1.0,
        1.0
      ],
      "min": [
        -1.0,
        -1.0,
        -1.0
      ],
      "type": "VEC3"
    },
    {
      "bufferView": 1,
      "byteOffset": 78408,
      "componentType": 5126,
      "count": 5306,
      "max": [
        0.0,
        0.0
      ],
      "min": [
        0.0,
        0.0
      ],
      "type": "VEC2"
    },
    {
      "bufferView": 0,
      "byteOffset": 87996,
      "componentType": 5125,
      "count": 11232,
      "type": "SCALAR"
    },
    {
      "bufferView": 2,
      "byteOffset": 362568,
      "componentType": 5126,
      "count": 65532,
      "max": [
        12.52712345123291,
        59.68791580200195,
        7.81158447265625
      ],
      "min": [
        -19.47030258178711,
        -33.002376556396484,
        -8.319835662841797
      ],
      "type": "VEC3"
    },
    {
      "bufferView": 2,
      "byteOffset": 1148952,
      "componentType": 5126,
      "count": 65532,
      "max": [
        1.0,
        1.0,
        1.0
      ],
      "min": [
        -1.0,
        -1.0,
        -1.0
      ],
      "type": "VEC3"
    },
    {
      "bufferView": 1,
      "byteOffset": 120856,
      "componentType": 5126,
      "count": 65532,
      "max": [
        1.000000238418579,
        1.0003843307495117
      ],
      "min": [
        0.0,
        -5.783692813565722e-06
      ],
      "type": "VEC2"
    },
    {
      "bufferView": 0,
      "byteOffset": 132924,
      "componentType": 5125,
      "count": 104949,
      "type": "SCALAR"
    },
    {
      "bufferView": 2,
      "byteOffset": 1935336,
      "componentType": 5126,
      "count": 8018,
      "max": [
        12.301616668701172,
        59.68791580200195,
        7.811580657958984
      ],
      "min": [
        -19.244796752929688,
        -32.98524475097656,
        -8.319835662841797
      ],
      "type": "VEC3"
    },
    {
      "bufferView": 2,
      "byteOffset": 2031552,
      "componentType": 5126,
      "count": 8018,
      "max": [
        1.0,
        1.0,
        1.0
      ],
      "min": [
        -0.9999997615814209,
        -1.0,
        -1.0
      ],
      "type": "VEC3"
    },
    {
      "bufferView": 1,
      "byteOffset": 645112,
      "componentType": 5126,
      "count": 8018,
      "max": [
        0.7996883392333984,
        1.0001921653747559
      ],
      "min": [
        0.2003110647201538,
        0.0
      ],
      "type": "VEC2"
    },
    {
      "bufferView": 0,
      "byteOffset": 552720,
      "componentType": 5125,
      "count": 12048,
      "type": "SCALAR"
    },
    {
      "bufferView": 2,
      "byteOffset": 2127768,
      "componentType": 5126,
      "count": 2296,
      "max": [
        6.012969017028809,
        -32.98523712158203,
        -2.5584628582000732
      ],
      "min": [
        -0.27283239364624023,
        -33.168174743652344,
        -3.679273843765259
      ],
      "type": "VEC3"
    },
    {
      "bufferView": 2,
      "byteOffset": 2155320,
      "componentType": 5126,
      "count": 2296,
      "max": [
        0.9979269504547119,
        1.0,
        0.9999876618385315
      ],
      "min": [
        -0.997934103012085,
        -1.0460256817168556e-05,
        -0.9999911785125732
      ],
      "type": "VEC3"
    },
    {
      "bufferView": 1,
      "byteOffset": 709256,
      "componentType": 5126,
      "count": 2296,
      "max": [
        0.46561700105667114,
        0.36025476455688477
      ],
      "min": [
        0.440863698720932,
        0.3254248797893524
      ],
      "type": "VEC2"
    },
    {
      "bufferView": 0,
      "byteOffset": 600912,
      "componentType": 5125,
      "count": 3504,
      "type": "SCALAR"
    }
  ],
  "asset": {
    "extras": {
      "author": "Aleksander Buzlaev (https://sketchfab.com/Aleksander2019)",
      "license": "CC-BY-4.0 (http://creativecommons.org/licenses/by/4.0/)",
      "source": "https://sketchfab.com/3d-models/xiaomi-mi-power-bank-3-f3671798460a476e9c763a5eba3d72e2",
      "title": "Xiaomi Mi Power Bank 3"
    },
    "generator": "Sketchfab-14.60.0",
    "version": "2.0"
  },
  "bufferViews": [
    {
      "buffer": 0,
      "byteLength": 614928,
      "name": "floatBufferViews",
      "target": 34963
    },
    {
      "buffer": 0,
      "byteLength": 727624,
      "byteOffset": 614928,
      "byteStride": 8,
      "name": "floatBufferViews",
      "target": 34962
    },
    {
      "buffer": 0,
      "byteLength": 2182872,
      "byteOffset": 1342552,
      "byteStride": 12,
      "name": "floatBufferViews",
      "target": 34962
    }
  ],
  "buffers": [
    {
      "byteLength": 3525424,
      "uri": "scene.bin"
    }
  ],
  "extensionsUsed": [
    "KHR_materials_emissive_strength"
  ],
  "materials": [
    {
      "doubleSided": true,
      "name": "Silver",
      "pbrMetallicRoughness": {
        "baseColorFactor": [
          0.568951,
          0.568951,
          0.568951,
          1.0
        ],
        "roughnessFactor": 0.1
      }
    },
    {
      "doubleSided": true,
      "name": "Gold",
      "pbrMetallicRoughness": {
        "baseColorFactor": [
          0.475251,
          0.8,
          0.244162,
          1.0
        ],
        "roughnessFactor": 0.0
      }
    },
    {
      "doubleSided": true,
      "extensions": {
        "KHR_materials_emissive_strength": {
          "emissiveStrength": 3.0
        }
      },
      "name": "BaseMaterial",
      "pbrMetallicRoughness": {
        "baseColorFactor": [
          0.174647,
          0.208637,
          0.278894,
          1.0
        ],
        "metallicFactor": 0.7,
        "roughnessFactor": 0.1
      }
    },
    {
      "doubleSided": true,
      "emissiveFactor": [
        1.0,
        1.0,
        1.0
      ],
      "name": "Emission"
    }
  ],
  "meshes": [
    {
      "name": "Object_0",
      "primitives": [
        {
          "attributes": {
            "NORMAL": 1,
            "POSITION": 0,
            "TEXCOORD_0": 2
          },
          "indices": 3,
          "material": 0,
          "mode": 4
        }
      ]
    },
    {
      "name": "Object_1",
      "primitives": [
        {
          "attributes": {
            "NORMAL": 5,
            "POSITION": 4,
            "TEXCOORD_0": 6
          },
          "indices": 7,
          "material": 1,
          "mode": 4
        }
      ]
    },
    {
      "name": "Object_2",
      "primitives": [
        {
          "attributes": {
            "NORMAL": 9,
            "POSITION": 8,
            "TEXCOORD_0": 10
          },
          "indices": 11,
          "material": 2,
          "mode": 4
        }
      ]
    },
    {
      "name": "Object_3",
      "primitives": [
        {
          "attributes": {
            "NORMAL": 13,
            "POSITION": 12,
            "TEXCOORD_0": 14
          },
          "indices": 15,
          "material": 2,
          "mode": 4
        }
      ]
    },
    {
      "name": "Object_4",
      "primitives": [
        {
          "attributes": {
            "NORMAL": 17,
            "POSITION": 16,
            "TEXCOORD_0": 18
          },
          "indices": 19,
          "material": 3,
          "mode": 4
        }
      ]
    }
  ],
  "nodes": [
    {
      "children": [
        1
      ],
      "matrix": [
        1.0,
        0.0,
        0.0,
        0.0,
        0.0,
        2.220446049250313e-16,
        -1.0,
        0.0,
        0.0,
        1.0,
        2.220446049250313e-16,
        0.0,
        0.0,
        0.0,
        0.0,
        1.0
      ],
      "name": "Sketchfab_model"
    },
    {
      "children": [
        2
      ],
      "name": "root"
    },
    {
      "children": [
        3
      ],
      "matrix": [
        1.0,
        0.0,
        0.0,
        0.0,
        0.0,
        2.220446049250313e-16,
        1.0,
        0.0,
        0.0,
        -1.0,
        2.220446049250313e-16,
        0.0,
        0.0,
        0.0,
        0.0,
        1.0
      ],
      "name": "GLTF_SceneRootNode"
    },
    {
      "children": [
        4,
        5,
        6,
        7,
        8
      ],
      "matrix": [
        -0.07595586031675325,
        3.3201359434059635e-09,
        -3.3201359434059635e-09,
        0.0,
        -2.322745529763889e-09,
        4.7196225834756386e-17,
        0.05313822627067561,
        0.0,
        1.0162516489285978e-09,
        0.023249128833413103,
        2.0649374506665485e-17,
        0.0,
        0.0,
        0.0,
        0.0,
        1.0
      ],
      "name": "PowerBank_0"
    },
    {
      "mesh": 0,
      "name": "Object_4"
    },
    {
      "mesh": 1,
      "name": "Object_5"
    },
    {
      "mesh": 2,
      "name": "Object_6"
    },
    {
      "mesh": 3,
      "name": "Object_7"
    },
    {
      "mesh": 4,
      "name": "Object_8"
    }
  ],
  "scene": 0,
  "scenes": [
    {
      "name": "Sketchfab_Scene",
      "nodes": [
        0
      ]
    }
  ]
}
